<svg xmlns="http://www.w3.org/2000/svg" xmlns:xlink="http://www.w3.org/1999/xlink" viewBox="0 0 136.09 136.09"><defs><style>.cls-1{opacity:0.1;}.cls-2{fill:#fff;}.cls-3{fill:url(#linear-gradient);}</style><linearGradient id="linear-gradient" x1="-44.55" y1="364.61" x2="-31.75" y2="510.91" gradientTransform="translate(505.8 106.19) rotate(90)" gradientUnits="userSpaceOnUse"><stop offset="0" stop-color="#2de2f7"/><stop offset="1" stop-color="#047ced"/></linearGradient></defs><title>dots</title><g id="Layer_2" data-name="Layer 2"><g id="INTRO"><g id="Background"><g id="_Group_" data-name="&lt;Group&gt;" class="cls-1"><circle class="cls-2" cx="132.63" cy="3.46" r="3.46"/><circle class="cls-2" cx="114.17" cy="3.46" r="3.46"/><circle class="cls-2" cx="132.63" cy="21.91" r="3.46"/><circle class="cls-2" cx="114.17" cy="21.91" r="3.46"/><circle class="cls-2" cx="95.72" cy="3.46" r="3.46"/><circle class="cls-2" cx="77.27" cy="3.46" r="3.46"/><circle class="cls-2" cx="95.72" cy="21.91" r="3.46"/><circle class="cls-2" cx="77.27" cy="21.91" r="3.46"/><circle class="cls-2" cx="58.82" cy="3.46" r="3.46"/><circle class="cls-2" cx="40.36" cy="3.46" r="3.46"/><circle class="cls-2" cx="58.82" cy="21.91" r="3.46"/><circle class="cls-2" cx="40.36" cy="21.91" r="3.46"/><circle class="cls-2" cx="21.91" cy="3.46" r="3.46"/><circle class="cls-2" cx="3.46" cy="3.46" r="3.46"/><circle class="cls-2" cx="21.91" cy="21.91" r="3.46"/><circle class="cls-2" cx="3.46" cy="21.91" r="3.46"/><circle class="cls-2" cx="132.63" cy="40.36" r="3.46"/><circle class="cls-2" cx="114.17" cy="40.36" r="3.46"/><circle class="cls-2" cx="132.63" cy="58.82" r="3.46"/><circle class="cls-2" cx="114.17" cy="58.82" r="3.46"/><circle class="cls-2" cx="95.72" cy="40.36" r="3.46"/><circle class="cls-2" cx="77.27" cy="40.36" r="3.46"/><circle class="cls-2" cx="95.72" cy="58.82" r="3.46"/><circle class="cls-2" cx="77.27" cy="58.82" r="3.46"/><circle class="cls-2" cx="58.82" cy="40.36" r="3.46"/><circle class="cls-2" cx="40.36" cy="40.36" r="3.46"/><circle class="cls-2" cx="58.82" cy="58.82" r="3.46"/><circle class="cls-2" cx="40.36" cy="58.82" r="3.46"/><circle class="cls-2" cx="21.91" cy="40.36" r="3.46"/><circle class="cls-2" cx="3.46" cy="40.36" r="3.46"/><circle class="cls-2" cx="21.91" cy="58.82" r="3.46"/><circle class="cls-2" cx="3.46" cy="58.82" r="3.46"/><circle class="cls-2" cx="132.63" cy="77.27" r="3.46"/><circle class="cls-2" cx="114.17" cy="77.27" r="3.46"/><circle class="cls-2" cx="132.63" cy="95.72" r="3.46"/><circle class="cls-2" cx="114.17" cy="95.72" r="3.46"/><circle class="cls-2" cx="95.72" cy="77.27" r="3.46"/><circle class="cls-2" cx="77.27" cy="77.27" r="3.46"/><circle class="cls-2" cx="95.72" cy="95.72" r="3.46"/><circle class="cls-2" cx="77.27" cy="95.72" r="3.46"/><circle class="cls-2" cx="58.82" cy="77.27" r="3.46"/><circle class="cls-2" cx="40.36" cy="77.27" r="3.46"/><circle class="cls-2" cx="58.82" cy="95.72" r="3.46"/><circle class="cls-2" cx="40.36" cy="95.72" r="3.46"/><circle class="cls-2" cx="21.91" cy="77.27" r="3.46"/><circle class="cls-2" cx="3.46" cy="77.27" r="3.46"/><circle class="cls-2" cx="21.91" cy="95.72" r="3.46"/><circle class="cls-2" cx="3.46" cy="95.72" r="3.46"/><circle class="cls-2" cx="132.63" cy="114.17" r="3.46"/><circle class="cls-2" cx="114.17" cy="114.17" r="3.46"/><circle class="cls-2" cx="132.63" cy="132.63" r="3.46"/><circle class="cls-2" cx="114.17" cy="132.63" r="3.46"/><circle class="cls-2" cx="95.72" cy="114.17" r="3.46"/><circle class="cls-2" cx="77.27" cy="114.17" r="3.46"/><circle class="cls-2" cx="95.72" cy="132.63" r="3.46"/><circle class="cls-2" cx="77.27" cy="132.63" r="3.46"/><circle class="cls-2" cx="58.82" cy="114.17" r="3.46"/><circle class="cls-2" cx="40.36" cy="114.17" r="3.46"/><circle class="cls-2" cx="58.82" cy="132.63" r="3.46"/><circle class="cls-2" cx="40.36" cy="132.63" r="3.46"/><circle class="cls-2" cx="21.91" cy="114.17" r="3.46"/><circle class="cls-2" cx="3.46" cy="114.17" r="3.46"/><circle class="cls-2" cx="21.91" cy="132.63" r="3.46"/><circle class="cls-2" cx="3.46" cy="132.63" r="3.46"/><circle class="cls-3" cx="132.63" cy="3.46" r="3.46"/><circle class="cls-3" cx="114.17" cy="3.46" r="3.46"/><circle class="cls-3" cx="132.63" cy="21.91" r="3.46"/><circle class="cls-3" cx="114.17" cy="21.91" r="3.46"/><circle class="cls-3" cx="95.72" cy="3.46" r="3.46"/><circle class="cls-3" cx="77.27" cy="3.46" r="3.46"/><circle class="cls-3" cx="95.72" cy="21.91" r="3.46"/><circle class="cls-3" cx="77.27" cy="21.91" r="3.46"/><circle class="cls-3" cx="58.82" cy="3.46" r="3.46"/><circle class="cls-3" cx="40.36" cy="3.46" r="3.46"/><circle class="cls-3" cx="58.82" cy="21.91" r="3.46"/><circle class="cls-3" cx="40.36" cy="21.91" r="3.46"/><circle class="cls-3" cx="21.91" cy="3.46" r="3.46"/><circle class="cls-3" cx="3.46" cy="3.46" r="3.46"/><circle class="cls-3" cx="21.91" cy="21.91" r="3.46"/><circle class="cls-3" cx="3.46" cy="21.91" r="3.46"/><circle class="cls-3" cx="132.63" cy="40.36" r="3.46"/><circle class="cls-3" cx="114.17" cy="40.36" r="3.46"/><circle class="cls-3" cx="132.63" cy="58.82" r="3.46"/><circle class="cls-3" cx="114.17" cy="58.82" r="3.46"/><circle class="cls-3" cx="95.72" cy="40.36" r="3.46"/><circle class="cls-3" cx="77.27" cy="40.36" r="3.46"/><circle class="cls-3" cx="95.72" cy="58.82" r="3.46"/><circle class="cls-3" cx="77.27" cy="58.82" r="3.46"/><circle class="cls-3" cx="58.82" cy="40.36" r="3.46"/><circle class="cls-3" cx="40.36" cy="40.36" r="3.46"/><circle class="cls-3" cx="58.82" cy="58.82" r="3.46"/><circle class="cls-3" cx="40.36" cy="58.82" r="3.46"/><circle class="cls-3" cx="21.91" cy="40.36" r="3.46"/><circle class="cls-3" cx="3.46" cy="40.36" r="3.46"/><circle class="cls-3" cx="21.91" cy="58.82" r="3.46"/><circle class="cls-3" cx="3.46" cy="58.82" r="3.46"/><circle class="cls-3" cx="132.63" cy="77.27" r="3.46"/><circle class="cls-3" cx="114.17" cy="77.27" r="3.46"/><circle class="cls-3" cx="132.63" cy="95.72" r="3.46"/><circle class="cls-3" cx="114.17" cy="95.72" r="3.46"/><circle class="cls-3" cx="95.72" cy="77.27" r="3.46"/><circle class="cls-3" cx="77.27" cy="77.27" r="3.46"/><circle class="cls-3" cx="95.72" cy="95.72" r="3.46"/><circle class="cls-3" cx="77.27" cy="95.72" r="3.46"/><circle class="cls-3" cx="58.82" cy="77.27" r="3.46"/><circle class="cls-3" cx="40.36" cy="77.27" r="3.46"/><circle class="cls-3" cx="58.82" cy="95.72" r="3.46"/><circle class="cls-3" cx="40.36" cy="95.72" r="3.46"/><circle class="cls-3" cx="21.91" cy="77.27" r="3.46"/><circle class="cls-3" cx="3.46" cy="77.27" r="3.46"/><circle class="cls-3" cx="21.91" cy="95.72" r="3.46"/><circle class="cls-3" cx="3.46" cy="95.72" r="3.46"/><circle class="cls-3" cx="132.63" cy="114.17" r="3.46"/><circle class="cls-3" cx="114.17" cy="114.17" r="3.46"/><circle class="cls-3" cx="132.63" cy="132.63" r="3.46"/><circle class="cls-3" cx="114.17" cy="132.63" r="3.46"/><circle class="cls-3" cx="95.72" cy="114.17" r="3.46"/><circle class="cls-3" cx="77.27" cy="114.17" r="3.46"/><circle class="cls-3" cx="95.72" cy="132.63" r="3.46"/><circle class="cls-3" cx="77.27" cy="132.63" r="3.46"/><circle class="cls-3" cx="58.82" cy="114.17" r="3.46"/><circle class="cls-3" cx="40.36" cy="114.17" r="3.46"/><circle class="cls-3" cx="58.82" cy="132.63" r="3.46"/><circle class="cls-3" cx="40.36" cy="132.63" r="3.46"/><circle class="cls-3" cx="21.91" cy="114.17" r="3.46"/><circle class="cls-3" cx="3.46" cy="114.17" r="3.46"/><circle class="cls-3" cx="21.91" cy="132.63" r="3.46"/><circle class="cls-3" cx="3.46" cy="132.63" r="3.46"/></g></g></g></g></svg>