<svg xmlns="http://www.w3.org/2000/svg" xmlns:xlink="http://www.w3.org/1999/xlink" viewBox="0 0 753.87 238.9"><defs><linearGradient id="linear-gradient" x1="-1.1" y1="116.98" x2="738.9" y2="138.98" gradientUnits="userSpaceOnUse"><stop offset="0" stop-color="#2778f1"/><stop offset="1" stop-color="#72ddfd"/></linearGradient><linearGradient id="linear-gradient-2" x1="-2.41" y1="161.12" x2="737.59" y2="183.12" xlink:href="#linear-gradient"/><linearGradient id="linear-gradient-3" x1="-0.88" y1="109.82" x2="739.12" y2="131.82" xlink:href="#linear-gradient"/><linearGradient id="linear-gradient-4" x1="-2.09" y1="150.41" x2="737.91" y2="172.41" xlink:href="#linear-gradient"/><linearGradient id="linear-gradient-5" x1="-1.99" y1="147.23" x2="738.01" y2="169.23" xlink:href="#linear-gradient"/><linearGradient id="linear-gradient-6" x1="-1.75" y1="138.93" x2="738.25" y2="160.93" xlink:href="#linear-gradient"/></defs><title>Asset 1</title><g id="Layer_2" data-name="Layer 2"><g id="INTRO"><g opacity="0.05"><path d="M23.31,76.33c0,.83.68,1.24,2.06,1.24q1.43,0,12.92-2.12a130,130,0,0,1,20.85-2.3,169.08,169.08,0,0,0-18,6.45q-7.53,3.27-15.54,7.25c-5.33,2.65-9.17,4.41-11.49,5.3a17.49,17.49,0,0,1-6,1.32Q0,93.47,0,81.81q0-30,13.63-42.23,5.55-4.95,17.84-11.75a238,238,0,0,1,27.75-12.9,251.53,251.53,0,0,1,34-10.51A157.5,157.5,0,0,1,129.85,0a93.65,93.65,0,0,1,34.08,6,71,71,0,0,1,26,16.87A73.49,73.49,0,0,1,206,49.48q5.63,15.72,5.63,35.33,0,29.86-15.46,58A172.66,172.66,0,0,1,155,192.34a207,207,0,0,1-58.11,34Q64.53,238.89,33.14,238.9a24.8,24.8,0,0,1-9.28-1.42A8.65,8.65,0,0,1,19,231.92q-1.44-4.15-1.43-12.28A76.81,76.81,0,0,1,19,203.2a97.57,97.57,0,0,1,4.75-14.66q22.83-56.37,79.43-141.89a160.68,160.68,0,0,0-25,5.39q-13.64,4-25.84,8.74A207,207,0,0,0,31.71,70C26.1,72.92,23.31,75,23.31,76.33Zm84.5-30.74c0,.24.21,1.56.63,4a37.56,37.56,0,0,1,.64,6.28q0,4.06-3.73,11.39T90.69,93.3Q79.74,112,72,126.16t-18.39,36.4q-3.33,7.08-4.6,9.54t-4,8.13A71.14,71.14,0,0,0,40.9,190a22.94,22.94,0,0,0-1.26,6.19q0,4.59,4.51,6.44c3,1.24,7.32,1.86,12.93,1.86q21.56,0,45.66-8.75A179.9,179.9,0,0,0,148,171.4q21.17-15.56,33.85-35.17t12.68-41q0-24.39-16-37.55T131.91,44.53Q119.07,44.53,107.81,45.59Z" fill="url(#linear-gradient)"/><path d="M244.16,182.35v4.42q0,10.42,4.59,16.26a14.64,14.64,0,0,0,12.05,5.83,36.64,36.64,0,0,0,16.1-4.07A86.33,86.33,0,0,0,293.46,194q8.25-6.7,20.14-18v10.78q-17.93,24-33.61,36.84t-31.87,12.81q-14.12,0-22.35-12.19t-8.25-33.4a72.55,72.55,0,0,1,7.77-33.66q7.77-15.1,25.37-31.89,12-11.49,23.94-17.32t21.24-5.83q7.46,0,11.81,3.8c2.91,2.54,4.36,6.33,4.36,11.4q0,11.13-7.45,22.17t-22.75,21.91Q266.51,172.29,244.16,182.35Zm1.58-11.48a88.33,88.33,0,0,0,24.42-15.38q10.14-9.18,15-17.58T290,125.63q0-4.06-3.33-4.06-2.86,0-9.28,4.06a78.09,78.09,0,0,0-13,10.6,76.42,76.42,0,0,0-11.81,15.38A53.11,53.11,0,0,0,245.74,170.87Z" fill="url(#linear-gradient-2)"/><path d="M433.14,176v11.84Q415.38,211,403.33,222.9T383.2,234.83a21.61,21.61,0,0,1-14-5.12,48,48,0,0,1-11.26-14.14,276.81,276.81,0,0,1-11.81-25.09q-8.09,11.13-14.59,20.76t-9,12.81c-1.69,2.12-3.23,3.18-4.6,3.18-2.85,0-4.92-2-6.18-6.09s-1.91-10-1.91-17.76a136,136,0,0,1,3.41-30.66A148.67,148.67,0,0,1,323,144a275.26,275.26,0,0,1,16.49-30.13Q349.59,97.71,362.11,80q17.28-24.38,29.81-39.84t21.8-23.33Q423,9,429.18,9q7.6,0,7.61,7.6,0,6.54-28.07,47.09t-81.8,110.7v15.2q36-42.94,57.94-63.79t34-20.85q4.92,0,7.61,6.45a38.43,38.43,0,0,1,2.7,14.93q0,17.32-13.32,32.07T375,192.25c3.18,5.3,6,9.16,8.41,11.57a12.47,12.47,0,0,0,9.19,3.62q4.92,0,10.62-3.71a81.56,81.56,0,0,0,11.66-9.36Q420.77,188.71,433.14,176Zm-62.62,9a126.25,126.25,0,0,0,15-13.69,122.13,122.13,0,0,0,15.3-19.26q6.33-10,6.34-16.7c0-1.88-.74-2.83-2.22-2.83q-6,0-20.69,12.9t-28.62,33.05Q361.64,178.47,370.52,185Z" fill="url(#linear-gradient-3)"/><path d="M506.86,164q-23,33.92-35,48.23t-19.58,14.32q-6,0-11.09-5.57t-7.85-15a71.46,71.46,0,0,1-2.78-20.23A62.24,62.24,0,0,1,431.79,173a54.09,54.09,0,0,1,4.52-12.46,117.69,117.69,0,0,1,8.8-14.75q5.47-8,13.4-18l8-10.42a19.08,19.08,0,0,1,6.35-5.75c2.06-1,5.41-1.5,10.06-1.5a31.26,31.26,0,0,1,9.67,1.5q4.61,1.52,4.6,3.1,0,3.18-4.68,11.48t-15.06,20.23a217,217,0,0,1-24,23.42q-3,10.42-3,15.9,0,7.6,5.23,7.6,1.91,0,6.35-3.62t15-14q10.54-10.35,18.94-18.29,6.19-6,14.35-17.94t13.24-17.93q11.73-13.78,16-17.94c2.86-2.76,5.6-4.15,8.25-4.15s4.25.88,5.15,2.65,1.35,5.36,1.35,10.78a23.36,23.36,0,0,1-.64,6,29.57,29.57,0,0,1-2.61,5.92q-2,3.61-8,13.34t-14.27,23A94.63,94.63,0,0,0,521,176.61q-3.33,8.4-3.33,12.63,0,9.19,6.5,9.19,5.4,0,12.53-5t21.88-17.84v11.84Q540,206.56,531.12,215.22a119.18,119.18,0,0,1-15.38,13.07c-4.33,3-8.46,4.42-12.36,4.42q-13.32,0-13.32-17.67,0-6.71,4-18.11T506.86,164Z" fill="url(#linear-gradient-4)"/><path d="M555.54,189.6V178.11a174.9,174.9,0,0,0,13-19.26,17.17,17.17,0,0,1-7.38-4.77q-2.29-2.82-2.29-8.48,0-6.36,4.75-16.08a92.59,92.59,0,0,1,11.73-18.2q7-8.47,12.69-11a8.81,8.81,0,0,1,4.28-1.23q3.16,0,3.17,3.35,0,3-4.92,12.2Q623.24,109,631.8,109a10.32,10.32,0,0,1,4.59.71q2.7,1.59,4.44,7.42a40.66,40.66,0,0,1,1.75,11.66,14.54,14.54,0,0,1-2.94,8,156,156,0,0,1-10.06,12.64,105.18,105.18,0,0,0-14.11,21.91q-5.72,11.83-5.71,17.84,0,8.31,9.19,8.31,9.67,0,33.61-21.91v11.84q-13.15,15.38-21.72,24.2a118.06,118.06,0,0,1-15.85,14q-7.29,5.22-13,5.21-6.66,0-11.1-6.8t-4.44-19.7a52,52,0,0,1,3.49-17.32A124.65,124.65,0,0,1,600.17,166a257.4,257.4,0,0,1,15.14-22.71q-4.44,1.06-10,2.21t-11.73,2.39q-6.2,1.23-9.52,1.94A126.08,126.08,0,0,1,555.54,189.6Z" fill="url(#linear-gradient-5)"/><path d="M651.3,180.94V176.7q40.91-48.06,56.28-67.32,3.48-21.73,16.8-21.74a14.83,14.83,0,0,1,7.14,2.12l1,3.36a22.17,22.17,0,0,0-.63,6q0,3.36,2.29,12.45t3.57,15.29a69.48,69.48,0,0,1,1.27,14,54.43,54.43,0,0,1-4.76,22.35,75.72,75.72,0,0,1-13.79,20.5,152.81,152.81,0,0,1-23.3,20,52,52,0,0,0,9,1.06,32.51,32.51,0,0,0,14-3.62,85.54,85.54,0,0,0,15.38-9.72q7.85-6.09,18.31-15.81v11.84q-20.29,22.08-36.3,33.48T690,232.36q-14.91,0-27.59-14.14-7.46-8.47-9.27-16.25T651.3,180.94Zm59.13-27-2.85-25.79q-9.84,12.36-42,47.53,9.51,2.3,13,6.18t9.83,15A39,39,0,0,0,705,183.32q5.79-8.56,5.79-23.41c0-1.17,0-2.23-.08-3.18S710.54,154.85,710.43,153.9Z" fill="url(#linear-gradient-6)"/></g></g></g></svg>