<svg xmlns="http://www.w3.org/2000/svg" xmlns:xlink="http://www.w3.org/1999/xlink" viewBox="0 0 865.43 304"><defs><style>.cls-1{opacity:0.05;}.cls-2{fill:url(#linear-gradient);}.cls-3{fill:url(#linear-gradient-2);}.cls-4{fill:url(#linear-gradient-3);}</style><linearGradient id="linear-gradient" x1="31" y1="144.54" x2="903.92" y2="144.54" gradientUnits="userSpaceOnUse"><stop offset="0" stop-color="#2778f1"/><stop offset="1" stop-color="#72ddfd"/></linearGradient><linearGradient id="linear-gradient-2" y1="152" x2="903.92" y2="152" xlink:href="#linear-gradient"/><linearGradient id="linear-gradient-3" y1="126.76" x2="903.92" y2="126.76" xlink:href="#linear-gradient"/></defs><title>getrate</title><g id="Layer_2" data-name="Layer 2"><g id="INTRO"><g id="Background"><g class="cls-1"><path class="cls-2" d="M66.92,170.16c-10.33,9.18-12.62,44.36-.38,36.33,22.56-15.3,41.67-21,56.21-22.18v4.21c0,14.14-58.89,77.62-86,77.62-5,0-8-2.29-8-14.53,0-69.21,76.86-189.28,153-213C174.37,49.33,169,60.42,169,68.83c0,9.94,6.89,16.06,10,11.85,44.74-57.35,69.59-51.24,69.59-61.18,0-14.15-19.5-19.12-23.33-19.12-4.2,0-11.08,4.21-18.73,10.71C199.22,5.35,190,.38,181.25.38,110.51.38,0,141.48,0,232.87,0,265,18.74,288.7,49.71,288.7c32.5,0,91-57.36,91-80.3,0-9.94-4.59-18.74-9.18-24.47,15.68.76,24.47,6.5,24.47,6.5s8.8-5.74-3.82-20.27C133.07,148.75,73.8,164.43,66.92,170.16Z"/><path class="cls-3" d="M541.83,276.85c-1.53,1.53-.76,8.41-9.94,8.41-30.59,0-73.42-67.68-92.15-100.57a47.25,47.25,0,0,0,7.64.77c51.25,0,139.58-73.8,139.58-131.54C587,34.8,565.16,0,514.3,0,471.22,0,429.69,13.1,397,32.24c.91-1.59.7-2.16.7-3.56,0-7.65-20.65-17.21-26-17.21-4.58,0-11.47,6.5-29.06,32.12-14.53,1.91-27.91,3.06-34,3.06-21.41,0-3.82-14.15-8-18.74-2.29-1.91-15.29,5-15.29,20.27,0,19.12,17.59,25.24,37.85,25.24h.38c-20.24,33.83-40.48,74.1-50.07,109-17.11,14.61-41.06,33.85-65,29.43-16.45-3.06-8.8-25.24-3.83-33.27a19.37,19.37,0,0,0,17.21,10.33c28.3,0,52-36.71,52-51.62,0-19.51-12.62-27.53-27.54-27.53-27.15,0-83,45.12-83,91.38,0,23.33,13.76,40.92,34.79,40.92,25.63,0,52.18-18.45,70.56-36.61a105.94,105.94,0,0,0-1,13.67c0,9.56,3.05,22.94,14.14,22.94a16,16,0,0,0,4.21-.76c11.47-5.36,43.59-36.71,52-44.74,15.29-14.15,14.14-35.57,1.52-23-3.05,2.68-24.47,19.5-41.29,32.12,12.21-29.3,23.54-53.82,34.22-74.56,6.28,16.29,22.37,20.26,22.37,20.26a58.71,58.71,0,0,1-2.68-17.59c0-18.62,18.16-44.66,48-66.3,14.87-2.12,26.42-4.05,27.34-4.05,8,0-1.53,13.76,1.15,16.44.83.83,2.36.44,4.08-.79-29.2,39.52-74.06,119-74.06,171,0,26.38,10.33,39.39,21.42,39.39,10.32,0,11.08-6.51,8.41-9.18-1.15-1.15-6.88,3.44-6.88-8.41,0-26,10.32-53.92,24.09-80.3C427.88,228.67,478,304,515.45,304c11.47,0,31.36-10.71,31.36-21.42C546.81,276.08,543.75,275.32,541.83,276.85Zm-291-139.19c9.94,0-18.74,28.68-40.91,32.12C221.78,151.81,239.75,137.66,250.84,137.66ZM485.62,75c0-7.65-24.47-19.89-29.82-19.89-2.63,0-8.63,5.73-16.41,15.4a20,20,0,0,0,1.88-8.13c0-4.09-3-9.47-8.78-14a209.57,209.57,0,0,1,90.22-20.8c17.59,0,37.86,5.74,37.86,21.42,0,50.09-93.3,107.06-136.89,112C452.74,115.86,485.62,80.3,485.62,75Z"/><path class="cls-4" d="M855.77,174c-16.82,13.76-45.88,43.2-74.94,37.85-16.45-3.06-8.8-25.24-3.83-33.27a19.37,19.37,0,0,0,17.21,10.33c28.3,0,52-36.71,52-51.62,0-19.51-12.61-27.53-27.53-27.53-22.51,0-64.74,31-78.51,68-8,6.4-23.43,18.4-36.2,28,26.77-64.24,49.33-105.54,70-134.21,26.76-2.68,57.74-8,59.26-8,8,0-1.52,13.76,1.15,16.44S847,72.65,847,62.33c0-9.94-17.59-27.53-50.47-21.8,7.64-9.56,6.88-9.17,6.88-11.85,0-7.65-20.65-17.21-26-17.21-4.59,0-11.47,6.5-29.06,32.12-14.54,1.91-27.92,3.06-34,3.06-21.41,0-3.82-14.15-8-18.74C704,26,691,32.89,691,48.18c0,19.12,17.59,25.24,37.85,25.24h.39c-18,30-35.94,65.14-46.46,97.06a16.76,16.76,0,0,0-4,3.12c-4.59,4.21-35.94,28.3-42.44,33.65,10.7-35.56,45.5-76.09,45.5-81.83,0-7.65-14.15-16.82-27.53-16.82-3.06,0-8.8,5.73-14.92,14.91-3.05-7.26-8.79-14.91-18.73-14.91-47.42,0-91.39,58.5-91.39,97.12,0,20.65,12.62,36.33,30.2,36.33,13,0,34-27.15,49.33-49.33a93.47,93.47,0,0,0-2.29,19.89c0,23.32,8.41,29.44,12.24,29.44,9.09,0,45.13-33.18,56.87-44.33a117.56,117.56,0,0,0-2.19,21.39c0,9.56,3.06,22.94,14.15,22.94a16,16,0,0,0,4.2-.76c9.09-4.24,31.11-24.78,44.06-37.13,1.14,21.8,14.6,37.89,34.71,37.89,36.71,0,75.33-37.86,89.1-58.51C863,179.34,872.6,160.22,855.77,174Zm-32.5-36.33c9.94,0-18.74,28.68-40.91,32.12C794.21,151.81,812.18,137.66,823.27,137.66Zm-190-5c-1.15,1.53-56.6,73.42-66.16,73.42-15.29,0,29.06-75.33,62.33-75.33a20.33,20.33,0,0,1,5,.38A5.31,5.31,0,0,1,633.23,132.69Z"/></g></g></g></g></svg>