<svg
        xmlns="http://www.w3.org/2000/svg"
        xmlns:xlink="http://www.w3.org/1999/xlink"
        viewBox="0 0 223.42 111.06">
    <defs>
        <clipPath id="clip-path">
            <path d="M147.75,52.2,130.52,35l18.16-18.16,4.82,4.82L140.16,35l12.41,12.41Zm-3.6,3.57L126.92,38.54l-4.82,4.82,12.41,12.41L121.17,69.11,126,73.93Z"
                  fill="none"/>
        </clipPath>
        <linearGradient id="linear-gradient" x1="141.38" y1="79.64" x2="141.38" y2="-2.27"
                        gradientUnits="userSpaceOnUse">
            <stop offset="0" stop-color="#0d3acc"/>
            <stop offset="0.21" stop-color="#0d3acc"/>
            <stop offset="0.87" stop-color="#2de2f7"/>
            <stop offset="1" stop-color="#2de2f7"/>
        </linearGradient>
    </defs>
    <title>dekurs</title>
    <g id="Layer_2" data-name="Layer 2">
        <g id="Layer_1-2" data-name="Layer 1"  fill="#fff">
            <g clip-path="url(#clip-path)">
                <rect x="116.76" width="49.24" height="78.16" fill="url(#linear-gradient)"/>
            </g>
            <path d="M120.41,99c-1.49-1.91-3-3.73-4.6-5.43a51.31,51.31,0,0,0-4.52-4.36C114,86.51,122.51,77.6,122.51,77.6L117,72.46s-5.44,5.71-6.63,7-2.43,2.64-3.68,4l-3.52,3.71V54.25l-8.72,1.44v54.43h8.72V92.84a35.64,35.64,0,0,1,4,3.49c1.34,1.37,2.66,2.83,4,4.36s2.5,3.12,3.63,4.75,2.13,3.2,3,4.68h10.08a60.83,60.83,0,0,0-3.23-5.33Q122.63,101.92,120.41,99Z"/>
            <path d="M154.16,102.92a16.08,16.08,0,0,1-2.63.36c-1.17.1-2.29.15-3.34.15-2.93,0-5-.87-6.16-2.6s-1.76-4.6-1.76-8.64V72.47h-8.72V93.56a29.57,29.57,0,0,0,.79,7,14.19,14.19,0,0,0,2.63,5.51,12.17,12.17,0,0,0,4.9,3.6,19.58,19.58,0,0,0,7.59,1.3,52.68,52.68,0,0,0,8.86-.69c2.69-.45,4.87-.9,6.55-1.33V72.47h-8.71Z"/>
            <path d="M190.81,72.07c-.77-.12-1.54-.22-2.31-.29s-1.44-.11-2-.11a39.43,39.43,0,0,0-8.39.83,48.11,48.11,0,0,0-6.3,1.77v35.85h8.71V80a19,19,0,0,1,2.27-.5,17.72,17.72,0,0,1,3.06-.29,22.26,22.26,0,0,1,4.43.4,27.23,27.23,0,0,1,3,.75L194.77,73c-.43-.14-1-.3-1.73-.47S191.58,72.19,190.81,72.07Z"/>
            <path d="M222.78,95.79a8.79,8.79,0,0,0-2.06-3.2,14.4,14.4,0,0,0-3.56-2.52,49,49,0,0,0-5.26-2.27,31.4,31.4,0,0,1-3.16-1.26,10.79,10.79,0,0,1-2.09-1.22A3.61,3.61,0,0,1,205.53,84a4.1,4.1,0,0,1-.32-1.66,3,3,0,0,1,1.65-2.77,9.06,9.06,0,0,1,4.32-.9,22.25,22.25,0,0,1,5.19.54A20.58,20.58,0,0,1,220,80.39l1.58-7.06a31.37,31.37,0,0,0-4.53-1.19,32.55,32.55,0,0,0-6.34-.61q-6.56,0-10.37,3a9.81,9.81,0,0,0-3.81,8.17,10.77,10.77,0,0,0,.83,4.5,9.25,9.25,0,0,0,2.26,3.13,14.74,14.74,0,0,0,3.42,2.27,45.06,45.06,0,0,0,4.36,1.84A25.21,25.21,0,0,1,213,97.09a3.69,3.69,0,0,1,1.69,3.1,2.94,2.94,0,0,1-1.58,2.84,11.51,11.51,0,0,1-5,.83,24,24,0,0,1-6.16-.72,38.48,38.48,0,0,1-4.64-1.51l-1.51,7.27a39.76,39.76,0,0,0,4.24,1.33,31.36,31.36,0,0,0,8,.83q7.41,0,11.41-2.77a9.32,9.32,0,0,0,4-8.17A13,13,0,0,0,222.78,95.79Z"/>
            <path d="M40.57,65.81a23.45,23.45,0,0,0-8.89-4.61,41.89,41.89,0,0,0-11.45-1.48c-2,0-4.32.08-6.91.22A43,43,0,0,0,6,61V79.36H0v3H6v5.48H0v3H6V109.4a45.93,45.93,0,0,0,7.27,1c2.54.16,4.82.25,6.84.25a40.6,40.6,0,0,0,11.55-1.55,23.7,23.7,0,0,0,8.93-4.75,21.45,21.45,0,0,0,5.73-8,29,29,0,0,0,2-11.27,29.36,29.36,0,0,0-2-11.41A20.81,20.81,0,0,0,40.57,65.81ZM34.31,98.14q-4.5,4.64-13.65,4.64c-1.48,0-2.66,0-3.52,0s-1.56-.06-2.09-.1V90.84H20v-3H15.05V82.36H20v-3H15.05V67.79a51,51,0,0,1,5.76-.22q9.21,0,13.61,4.54t4.39,13Q38.81,93.49,34.31,98.14Z"/>
            <path d="M71.06,71.53h-.13a17.38,17.38,0,0,0-6.48,1.26,16.33,16.33,0,0,0-5.62,3.74,18.36,18.36,0,0,0-3.92,6.23,23.75,23.75,0,0,0-1.48,8.71,25.25,25.25,0,0,0,1.16,7.82,16.77,16.77,0,0,0,3.52,6.19,16.1,16.1,0,0,0,6,4.1,23,23,0,0,0,8.64,1.48h.14a32,32,0,0,0,3.81-.22c1.25-.14,2.41-.32,3.49-.54a25.18,25.18,0,0,0,2.88-.72,13.55,13.55,0,0,0,2-.75L84,101.7l-.12,0v0a23.84,23.84,0,0,1-4.14,1.22,27.51,27.51,0,0,1-5.73.58c-3.57,0-6.29-.84-8.18-2.48a9.93,9.93,0,0,1-3.2-7H87.41c0-.48.08-1,.11-1.62s0-1.14,0-1.62q0-9.58-4.35-14.4T71.06,71.53Zm3.29,8a6.92,6.92,0,0,1,2.38,1.87,8.27,8.27,0,0,1,1.47,2.81,11.32,11.32,0,0,1,.51,3.42H62.64a15,15,0,0,1,.79-3.24,9.3,9.3,0,0,1,1.62-2.81,8,8,0,0,1,2.56-2,7.61,7.61,0,0,1,3.47-.75A7.51,7.51,0,0,1,74.35,79.49Z"/>
        </g>
    </g>
</svg>